<?xml version="1.0" encoding="UTF-8" standalone="no"?>
<!-- Created with Inkscape (http://www.inkscape.org/) -->

<svg
   xmlns:dc="http://purl.org/dc/elements/1.1/"
   xmlns:cc="http://creativecommons.org/ns#"
   xmlns:rdf="http://www.w3.org/1999/02/22-rdf-syntax-ns#"
   xmlns:svg="http://www.w3.org/2000/svg"
   xmlns="http://www.w3.org/2000/svg"
   xmlns:sodipodi="http://sodipodi.sourceforge.net/DTD/sodipodi-0.dtd"
   xmlns:inkscape="http://www.inkscape.org/namespaces/inkscape"
   width="48"
   height="48"
   id="svg3006"
   version="1.1"
   inkscape:version="0.48.2 r9819"
   sodipodi:docname="sudoku.svg">
  <title
     id="title2998">Sudoku Icon</title>
  <defs
     id="defs3008" />
  <sodipodi:namedview
     id="base"
     pagecolor="#ffffff"
     bordercolor="#666666"
     borderopacity="1.0"
     inkscape:pageopacity="0.0"
     inkscape:pageshadow="2"
     inkscape:zoom="7.9195959"
     inkscape:cx="29.864966"
     inkscape:cy="27.91153"
     inkscape:document-units="px"
     inkscape:current-layer="layer1"
     showgrid="false"
     inkscape:window-width="1854"
     inkscape:window-height="1056"
     inkscape:window-x="66"
     inkscape:window-y="24"
     inkscape:window-maximized="1"
     fit-margin-top="0"
     fit-margin-left="0"
     fit-margin-right="0"
     fit-margin-bottom="0" />
  <metadata
     id="metadata3011">
    <rdf:RDF>
      <cc:Work
         rdf:about="">
        <dc:format>image/svg+xml</dc:format>
        <dc:type
           rdf:resource="http://purl.org/dc/dcmitype/StillImage" />
        <dc:title>Sudoku Icon</dc:title>
        <dc:date>2012/03/06</dc:date>
        <dc:creator>
          <cc:Agent>
            <dc:title>Oliver Kliebisch</dc:title>
          </cc:Agent>
        </dc:creator>
        <cc:license
           rdf:resource="http://creativecommons.org/licenses/publicdomain/" />
      </cc:Work>
      <cc:License
         rdf:about="http://creativecommons.org/licenses/publicdomain/">
        <cc:permits
           rdf:resource="http://creativecommons.org/ns#Reproduction" />
        <cc:permits
           rdf:resource="http://creativecommons.org/ns#Distribution" />
        <cc:permits
           rdf:resource="http://creativecommons.org/ns#DerivativeWorks" />
      </cc:License>
    </rdf:RDF>
  </metadata>
  <g
     inkscape:label="Layer 1"
     inkscape:groupmode="layer"
     id="layer1"
     transform="translate(0,-1004.3622)">
    <rect
       style="fill:none;stroke:#666666;stroke-width:1.55929363;stroke-miterlimit:4;stroke-opacity:1;stroke-dasharray:none"
       id="rect3008"
       width="46.362019"
       height="46.824005"
       x="0.77964681"
       y="1004.7585" />
    <path
       style="fill:none;stroke:#666666;stroke-width:0.77964681;stroke-linecap:butt;stroke-linejoin:miter;stroke-miterlimit:4;stroke-opacity:1;stroke-dasharray:none"
       d="m 16.101522,1004.7672 0,47.0113"
       id="path3780"
       inkscape:connector-curvature="0"
       sodipodi:nodetypes="cc" />
    <path
       style="fill:none;stroke:#666666;stroke-width:0.77964681;stroke-linecap:butt;stroke-linejoin:miter;stroke-miterlimit:4;stroke-opacity:1;stroke-dasharray:none"
       d="m 31.672387,1004.7124 0,31.3957"
       id="path3780-1"
       inkscape:connector-curvature="0"
       sodipodi:nodetypes="cc" />
    <path
       style="fill:none;stroke:#666666;stroke-width:0.77964681;stroke-linecap:butt;stroke-linejoin:miter;stroke-miterlimit:4;stroke-opacity:1;stroke-dasharray:none"
       d="m 0.58569906,1020.4377 46.54746894,0"
       id="path3811"
       inkscape:connector-curvature="0"
       sodipodi:nodetypes="cc" />
    <path
       style="fill:none;stroke:#666666;stroke-width:0.77964681;stroke-linecap:butt;stroke-linejoin:miter;stroke-miterlimit:4;stroke-opacity:1;stroke-dasharray:none"
       d="m 0.58569906,1036.1081 46.54746894,0"
       id="path3811-9"
       inkscape:connector-curvature="0"
       sodipodi:nodetypes="cc" />
    <path
       style="fill:none;stroke:#666666;stroke-width:0.77964681;stroke-linecap:butt;stroke-linejoin:miter;stroke-miterlimit:4;stroke-opacity:1;stroke-dasharray:none"
       d="m 31.617345,1042.3763 0,9.4022"
       id="path3780-1-1"
       inkscape:connector-curvature="0"
       sodipodi:nodetypes="cc" />
    <g
       transform="matrix(2.5015744,0,0,2.526502,10.050011,965.3488)"
       id="IconEdit"
       style="fill:#666666;fill-opacity:1;fill-rule:nonzero">
      <g
         id="g3991"
         transform="matrix(0.52859133,0,0,0.52859133,4.3559525,24.877689)"
         style="fill:#666666;fill-opacity:1;fill-rule:nonzero">
        <g
           id="Line"
           style="fill:#666666;fill-opacity:1;fill-rule:nonzero">
          <path
             id="path14"
             d="M 1,15 C 2.6845703,15.171875 4,15.296875 5.1586914,14.875 6.3408203,14.444336 6.534668,14.487305 7.2724609,14.283203 9.2773438,13.728516 9.9814453,13.99707 12,13.99707 c 2.5625,0 2.415039,-1.733398 1.020508,-1.77832 C 11.56543,12.171875 9.9541016,12.823242 8.4516601,13.22168 7.4140625,13.49707 6.8081055,14.561523 4,14.71875 L 1,15 z"
             class="Lower1"
             inkscape:connector-curvature="0"
             style="fill:#666666;fill-opacity:1;fill-rule:nonzero" />
          <path
             id="path16"
             d="M 1,15 C 2.609375,15 4.484375,15 5.1586914,14.728516 5.8310547,14.458008 6.4458008,14.263672 7.0405273,14.013672 8.6411133,13.342773 9.9814453,13 12,13 14.5625,13 14.415039,12.044922 13.020508,12 11.56543,11.953125 9.859375,12.203125 8.4516601,12.862305 7.190918,13.453125 6.8081055,14.415039 4,14.572266 L 1,15 z"
             class="Upper1"
             inkscape:connector-curvature="0"
             style="fill:#666666;fill-opacity:1;fill-rule:nonzero" />
        </g>
        <path
           inkscape:connector-curvature="0"
           class="Lower1"
           d="m 5.4375,12 4.875,-4.859375 C 9.90625,7.15625 9.5625,7.0625 9.28125,6.78125 8.96875,6.46875 8.9101562,6.1235352 8.90625,5.765625 L 4,10.662109 C 3.644043,11.016602 3.7114258,11.648438 4.0209961,11.958008 4.3857422,12.322266 5.1064453,12.331055 5.4375,12 z m -3.1132812,1.881836 1.1870117,-0.375 C 3.2246094,13.40625 3.0820313,13.432617 2.8461914,13.198242 2.6235352,12.991211 2.6362305,12.896484 2.597168,12.566406 l -0.4121094,1.170899 c -0.035156,0.107422 0.031738,0.175781 0.1391602,0.144531 z m -1.0917969,1.106445 c -0.1679688,0.04883 -0.2719727,-0.05859 -0.2177734,-0.224609 0,0 1.3828125,-3.798828 1.4384766,-3.896485 0.056641,-0.101562 0.1289062,-0.197265 0.2177734,-0.287109 L 10.900391,2.2836913 c 0.537109,-0.5405273 1.533203,-0.2988281 2.367187,0.6367188 0.769531,0.8662109 0.94336,1.7548828 0.472656,2.2275391 L 5.4555664,13.5 c -0.1738281,0.173828 -0.3720703,0.275391 -0.5830078,0.318359 -0.4736328,0.167969 -3.6401367,1.169922 -3.6401367,1.169922 z"
           id="path19"
           style="fill:#666666;fill-opacity:1;fill-rule:nonzero" />
      </g>
    </g>
    <text
       xml:space="preserve"
       style="font-size:14.00006866px;font-style:normal;font-weight:normal;line-height:125%;letter-spacing:0px;word-spacing:0px;fill:#666666;fill-opacity:1;stroke:none;font-family:Sans"
       x="20.700945"
       y="1028.2568"
       id="text3918-3"
       sodipodi:linespacing="125%"
       transform="scale(0.99505944,1.0049651)"><tspan
         sodipodi:role="line"
         id="tspan3920-0"
         x="20.700945"
         y="1028.2568"
         style="font-size:14.00006866px;font-style:normal;font-variant:normal;font-weight:normal;font-stretch:normal;fill:#666666;fill-opacity:1;font-family:Trebuchet MS;-inkscape-font-specification:Trebuchet MS">2</tspan></text>
    <text
       xml:space="preserve"
       style="font-size:13.99985504px;font-style:normal;font-weight:normal;line-height:125%;letter-spacing:0px;word-spacing:0px;fill:#666666;fill-opacity:1;stroke:none;font-family:Sans;-inkscape-font-specification:Trebuchet MS"
       x="4.8540053"
       y="1013.3155"
       id="text3918-3-8"
       sodipodi:linespacing="125%"
       transform="scale(0.99504428,1.0049804)"><tspan
         sodipodi:role="line"
         id="tspan3920-0-7"
         x="4.8540053"
         y="1013.3155"
         style="font-size:13.99985504px;font-style:normal;font-variant:normal;font-weight:normal;font-stretch:normal;fill:#666666;fill-opacity:1;font-family:Trebuchet MS;-inkscape-font-specification:Trebuchet MS">4</tspan></text>
  </g>
</svg>
